# xmcd CD database file generated by Grip 3.0.5
# 
# Track frame offsets:
#       150
#       9447
#       19387
#       34025
#       46410
#       57325
#       66907
#       78632
#       87787
#       97125
#       109805
#       123665
#       134062
#       142267
# 
# Disc length: 2023 seconds
# 
# Revision: 1
# Processed by: cddbd v1.4PL0 Copyright (c) Steve Scherf et al.
# Submitted via: Grip 3.0.5
# 
DISCID=d007e50e
DTITLE=The Ranch Girls and The Ragtime Wranglers - Rhythm on the "Ranch"
DYEAR=1994
DGENRE=Country
TTITLE0=Gotta Git Goin'
TTITLE1=Baby of Mine
TTITLE2=I'm Done, I'm Through
TTITLE3=Go Away Don't Bother Me
TTITLE4=Hi De Ank Tum
TTITLE5=Hey, Doll Baby
TTITLE6=I Gotta Know
TTITLE7=Hot Rod
TTITLE8=Peepin' Eyes
TTITLE9=Hillbilly Gal
TTITLE10=Crazy
TTITLE11=Foggy Mountain Top
TTITLE12=Wildwood Flower
TTITLE13=Fiddle Diddle Boogie
EXTD=
EXTT0=
EXTT1=
EXTT2=
EXTT3=
EXTT4=
EXTT5=
EXTT6=
EXTT7=
EXTT8=
EXTT9=
EXTT10=
EXTT11=
EXTT12=
EXTT13=
PLAYORDER=
